{"title":"My Little Pony S07E17 - To Change a Changeling [1080p] [TVRip]","magnet":"magnet:?xt=urn:btih:439cce85d740e81c671925d060d0579881aa8a52&dn=My+Little+Pony+S07E17+-+To+Change+a+Changeling+%5B1080p%5D+%5BTVRip%5D&tr=udp%3A%2F%2Ftracker.leechers-paradise.org%3A6969&tr=udp%3A%2F%2Fzer0day.ch%3A1337&tr=udp%3A%2F%2Fopen.demonii.com%3A1337&tr=udp%3A%2F%2Ftracker.coppersurfer.tk%3A6969&tr=udp%3A%2F%2Fexodus.desync.com%3A6969","uploader":"raribelle","categoryP":"video","categoryS":"tv_programma's","size":"815916503","seeders":"3","leechers":"4","description":"Video\r\nID                                       : 1\r\nFormat                                   : AVC\r\nFormat/Info                              : Advanced Video Codec\r\nFormat profile                           : <a href=\"/cdn-cgi/l/email-protection\" class=\"__cf_email__\" data-cfemail=\"b5fddcd2ddf5f981\">[email&#xA0;protected]</a>\r\nFormat settings, CABAC                   : Yes\r\nFormat settings, ReFrames                : 3 frames\r\nFormat settings, GOP                     : M=4, N=90\r\nCodec ID                                 : avc1\r\nCodec ID/Info                            : Advanced Video Coding\r\nDuration                                 : 22 min 0 s\r\nBit rate                                 : 4 776 kb/s\r\nWidth                                    : 1 920 pixels\r\nHeight                                   : 1 080 pixels\r\nDisplay aspect ratio                     : 16:9\r\nFrame rate mode                          : Constant\r\nFrame rate                               : 29.970 (29970/1000) FPS\r\nColor space                              : YUV\r\nChroma subsampling                       : 4:2:0\r\nBit depth                                : 8 bits\r\nScan type                                : Progressive\r\nBits/(Pixel*Frame)                       : 0.077\r\nStream size                              : 752 MiB (97%)\r\n\r\nAudio\r\nID                                       : 2\r\nFormat                                   : AAC\r\nFormat/Info                              : Advanced Audio Codec\r\nFormat profile                           : LC\r\nCodec ID                                 : 40\r\nDuration                                 : 22 min 0 s\r\nDuration_LastFrame                       : -21 ms\r\nBit rate mode                            : Constant\r\nBit rate                                 : 160 kb/s\r\nChannel(s)                               : 2 channels\r\nChannel positions                        : Front: L R\r\nSampling rate                            : 44.1 kHz\r\nFrame rate                               : 43.066 FPS (1024 spf)\r\nCompression mode                         : Lossy\r\nStream size                              : 25.2 MiB (3%)\r\nDefault                                  : Yes\r\nAlternate group                          : 1","last_updated":"2017-09-03T12:00:24.814Z","parsed":{"xt":"urn:btih:439cce85d740e81c671925d060d0579881aa8a52","dn":"My Little Pony S07E17 - To Change a Changeling [1080p] [TVRip]","tr":["udp://exodus.desync.com:6969","udp://open.demonii.com:1337","udp://tracker.coppersurfer.tk:6969","udp://tracker.leechers-paradise.org:6969","udp://zer0day.ch:1337"],"infoHash":"439cce85d740e81c671925d060d0579881aa8a52","infoHashBuffer":{"type":"Buffer","data":[67,156,206,133,215,64,232,28,103,25,37,208,96,208,87,152,129,170,138,82]},"name":"My Little Pony S07E17 - To Change a Changeling [1080p] [TVRip]","announce":["udp://exodus.desync.com:6969","udp://open.demonii.com:1337","udp://tracker.coppersurfer.tk:6969","udp://tracker.leechers-paradise.org:6969","udp://zer0day.ch:1337"],"urlList":[]}}